<svg xmlns="http://www.w3.org/2000/svg" xmlns:xlink="http://www.w3.org/1999/xlink" width="500" zoomAndPan="magnify" viewBox="0 0 375 374.999991" height="500" preserveAspectRatio="xMidYMid meet" version="1.0"><defs><clipPath id="2eb7fca29b"><path d="M 131 24 L 373 24 L 373 281 L 131 281 Z M 131 24 " clip-rule="nonzero"/></clipPath><clipPath id="e275a2d428"><path d="M 241.988281 -34.957031 L 432.277344 185.203125 L 322.195312 280.347656 L 131.90625 60.1875 Z M 241.988281 -34.957031 " clip-rule="nonzero"/></clipPath><clipPath id="eb1109b1ea"><path d="M 241.988281 -34.957031 L 432.277344 185.203125 L 322.195312 280.347656 L 131.90625 60.1875 Z M 241.988281 -34.957031 " clip-rule="nonzero"/></clipPath><clipPath id="33d41bba3e"><path d="M 38.167969 42 L 240 42 L 240 356 L 38.167969 356 Z M 38.167969 42 " clip-rule="nonzero"/></clipPath><clipPath id="9e44ed135e"><path d="M 138 82 L 339.667969 82 L 339.667969 350 L 138 350 Z M 138 82 " clip-rule="nonzero"/></clipPath><clipPath id="274fbe7e3e"><path d="M 56.628906 30.105469 L 91.015625 30.105469 L 91.015625 64.492188 L 56.628906 64.492188 Z M 56.628906 30.105469 " clip-rule="nonzero"/></clipPath><clipPath id="f67d9a0801"><path d="M 73.820312 30.105469 C 64.328125 30.105469 56.628906 37.804688 56.628906 47.300781 C 56.628906 56.796875 64.328125 64.492188 73.820312 64.492188 C 83.316406 64.492188 91.015625 56.796875 91.015625 47.300781 C 91.015625 37.804688 83.316406 30.105469 73.820312 30.105469 Z M 73.820312 30.105469 " clip-rule="nonzero"/></clipPath><clipPath id="28c00ead0e"><path d="M 25.023438 90.964844 L 68.332031 90.964844 L 68.332031 134.273438 L 25.023438 134.273438 Z M 25.023438 90.964844 " clip-rule="nonzero"/></clipPath><clipPath id="31591feb6d"><path d="M 46.675781 90.964844 C 34.71875 90.964844 25.023438 100.660156 25.023438 112.621094 C 25.023438 124.578125 34.71875 134.273438 46.675781 134.273438 C 58.636719 134.273438 68.332031 124.578125 68.332031 112.621094 C 68.332031 100.660156 58.636719 90.964844 46.675781 90.964844 Z M 46.675781 90.964844 " clip-rule="nonzero"/></clipPath><clipPath id="70d46c0ccc"><path d="M 0.75 52.355469 L 25.023438 52.355469 L 25.023438 76.628906 L 0.75 76.628906 Z M 0.75 52.355469 " clip-rule="nonzero"/></clipPath><clipPath id="e23003d215"><path d="M 12.886719 52.355469 C 6.183594 52.355469 0.75 57.789062 0.75 64.492188 C 0.75 71.195312 6.183594 76.628906 12.886719 76.628906 C 19.589844 76.628906 25.023438 71.195312 25.023438 64.492188 C 25.023438 57.789062 19.589844 52.355469 12.886719 52.355469 Z M 12.886719 52.355469 " clip-rule="nonzero"/></clipPath></defs><g clip-path="url(#2eb7fca29b)"><g clip-path="url(#e275a2d428)"><g clip-path="url(#eb1109b1ea)"><path fill="#ec4899" d="M 322.214844 280.421875 L 311.984375 268.585938 C 366.167969 221.75 372.148438 139.5625 325.316406 85.378906 C 278.484375 31.191406 196.296875 25.210938 142.109375 72.042969 L 131.878906 60.207031 C 192.59375 7.734375 284.679688 14.433594 337.152344 75.148438 C 389.628906 135.863281 382.925781 227.949219 322.214844 280.421875 Z M 322.214844 280.421875 " fill-opacity="1" fill-rule="nonzero"/></g></g></g><g clip-path="url(#33d41bba3e)"><path fill="#818cf8" d="M 38.203125 288.480469 L 38.203125 266.148438 C 41.367188 266.144531 44.519531 266.3125 47.660156 266.644531 C 50.804688 266.980469 53.921875 267.480469 57.011719 268.144531 C 60.101562 268.8125 63.148438 269.640625 66.152344 270.628906 C 69.152344 271.621094 72.09375 272.765625 74.972656 274.070312 C 77.855469 275.371094 80.65625 276.824219 83.382812 278.425781 C 86.109375 280.027344 88.742188 281.769531 91.28125 283.652344 C 93.820312 285.535156 96.253906 287.546875 98.578125 289.6875 C 100.90625 291.828125 103.109375 294.085938 105.195312 296.460938 L 105.195312 109.832031 C 105.195312 107.859375 105.28125 105.886719 105.457031 103.921875 C 105.632812 101.957031 105.890625 100 106.238281 98.058594 C 106.585938 96.113281 107.015625 94.1875 107.535156 92.285156 C 108.050781 90.378906 108.652344 88.5 109.332031 86.648438 C 110.015625 84.796875 110.78125 82.976562 111.625 81.191406 C 112.46875 79.40625 113.390625 77.664062 114.386719 75.960938 C 115.386719 74.257812 116.457031 72.601562 117.601562 70.992188 C 118.746094 69.382812 119.960938 67.828125 121.242188 66.328125 C 122.523438 64.824219 123.867188 63.382812 125.277344 62 C 126.6875 60.621094 128.15625 59.300781 129.679688 58.050781 C 131.207031 56.796875 132.785156 55.613281 134.414062 54.5 C 136.046875 53.386719 137.722656 52.347656 139.445312 51.382812 C 141.167969 50.417969 142.929688 49.53125 144.730469 48.722656 C 146.53125 47.914062 148.363281 47.1875 150.230469 46.539062 C 152.09375 45.890625 153.984375 45.328125 155.898438 44.847656 C 157.8125 44.371094 159.746094 43.976562 161.695312 43.664062 C 163.644531 43.355469 165.605469 43.132812 167.574219 43 C 169.546875 42.863281 171.515625 42.8125 173.492188 42.851562 C 175.464844 42.890625 177.433594 43.015625 179.394531 43.230469 C 181.359375 43.441406 183.308594 43.742188 185.242188 44.125 C 187.179688 44.511719 189.097656 44.980469 190.992188 45.535156 C 192.886719 46.089844 194.75 46.726562 196.589844 47.445312 C 198.429688 48.164062 200.230469 48.964844 202 49.84375 C 203.769531 50.722656 205.492188 51.675781 207.175781 52.707031 C 208.859375 53.738281 210.496094 54.84375 212.082031 56.019531 C 213.667969 57.195312 215.195312 58.4375 216.671875 59.75 C 218.148438 61.0625 219.5625 62.433594 220.917969 63.871094 C 222.273438 65.308594 223.5625 66.800781 224.78125 68.351562 C 226.003906 69.902344 227.15625 71.503906 228.238281 73.15625 C 229.320312 74.808594 230.324219 76.503906 231.253906 78.246094 C 232.1875 79.984375 233.039062 81.765625 233.8125 83.582031 C 234.585938 85.398438 235.277344 87.242188 235.886719 89.121094 C 238.105469 95.847656 239.203125 102.75 239.179688 109.832031 C 239.171875 112.824219 238.96875 115.800781 238.566406 118.765625 C 238.3125 120.628906 237.984375 122.480469 237.574219 124.320312 C 237.164062 126.15625 236.679688 127.972656 236.117188 129.769531 C 235.558594 131.566406 234.921875 133.335938 234.210938 135.078125 C 233.5 136.824219 232.71875 138.53125 231.863281 140.210938 C 231.007812 141.886719 230.082031 143.523438 229.089844 145.125 C 228.097656 146.722656 227.039062 148.277344 225.917969 149.789062 C 224.792969 151.296875 223.609375 152.757812 222.363281 154.167969 C 221.117188 155.578125 219.8125 156.933594 218.449219 158.234375 C 217.089844 159.535156 215.675781 160.777344 214.210938 161.957031 C 212.746094 163.140625 211.234375 164.257812 209.675781 165.3125 C 208.117188 166.367188 206.515625 167.355469 204.871094 168.273438 C 203.230469 169.191406 201.550781 170.042969 199.839844 170.820312 C 198.125 171.597656 196.378906 172.300781 194.605469 172.933594 C 192.835938 173.566406 191.039062 174.121094 189.21875 174.601562 C 187.398438 175.082031 185.558594 175.484375 183.707031 175.808594 C 181.851562 176.132812 179.988281 176.382812 178.113281 176.550781 C 177.082031 175.511719 176.109375 174.417969 175.199219 173.269531 C 172.996094 170.515625 171.207031 167.519531 169.828125 164.273438 C 168.449219 161.03125 167.527344 157.664062 167.070312 154.167969 C 168.769531 154.375 170.476562 154.484375 172.1875 154.496094 C 173.652344 154.492188 175.109375 154.417969 176.5625 154.273438 C 178.019531 154.128906 179.464844 153.914062 180.898438 153.625 C 182.332031 153.339844 183.746094 152.984375 185.144531 152.558594 C 186.546875 152.132812 187.917969 151.640625 189.269531 151.078125 C 190.621094 150.519531 191.941406 149.894531 193.230469 149.203125 C 194.519531 148.511719 195.773438 147.761719 196.988281 146.949219 C 198.203125 146.136719 199.375 145.265625 200.503906 144.339844 C 201.636719 143.410156 202.71875 142.429688 203.75 141.394531 C 204.785156 140.363281 205.765625 139.28125 206.695312 138.148438 C 207.621094 137.019531 208.492188 135.847656 209.304688 134.632812 C 210.117188 133.417969 210.867188 132.164062 211.558594 130.875 C 212.25 129.585938 212.875 128.265625 213.433594 126.914062 C 213.996094 125.566406 214.488281 124.191406 214.914062 122.789062 C 215.339844 121.390625 215.695312 119.976562 215.980469 118.542969 C 216.269531 117.109375 216.484375 115.664062 216.628906 114.207031 C 216.773438 112.753906 216.847656 111.296875 216.851562 109.832031 C 216.859375 108.414062 216.785156 107 216.625 105.589844 C 216.492188 104.222656 216.296875 102.867188 216.039062 101.519531 C 215.78125 100.171875 215.460938 98.835938 215.078125 97.519531 C 214.699219 96.199219 214.257812 94.902344 213.757812 93.625 C 213.253906 92.34375 212.695312 91.09375 212.082031 89.867188 C 211.464844 88.640625 210.796875 87.441406 210.070312 86.277344 C 209.34375 85.113281 208.566406 83.984375 207.738281 82.890625 C 206.90625 81.796875 206.027344 80.742188 205.101562 79.730469 C 204.175781 78.71875 203.203125 77.75 202.191406 76.824219 C 201.175781 75.902344 200.117188 75.027344 199.023438 74.199219 C 197.925781 73.375 196.792969 72.597656 195.628906 71.875 C 194.460938 71.152344 193.261719 70.484375 192.035156 69.875 C 190.804688 69.261719 189.550781 68.707031 188.273438 68.210938 C 186.992188 67.710938 185.691406 67.277344 184.375 66.898438 C 183.054688 66.519531 181.71875 66.203125 180.371094 65.949219 C 179.019531 65.695312 177.664062 65.503906 176.296875 65.371094 C 174.929688 65.242188 173.5625 65.175781 172.1875 65.171875 C 170.726562 65.171875 169.269531 65.246094 167.8125 65.390625 C 166.359375 65.535156 164.914062 65.753906 163.480469 66.039062 C 162.046875 66.328125 160.628906 66.683594 159.230469 67.109375 C 157.832031 67.535156 156.457031 68.027344 155.105469 68.585938 C 153.757812 69.148438 152.4375 69.773438 151.148438 70.460938 C 149.859375 71.152344 148.605469 71.902344 147.390625 72.714844 C 146.175781 73.53125 145 74.398438 143.871094 75.328125 C 142.742188 76.253906 141.660156 77.234375 140.625 78.269531 C 139.589844 79.304688 138.609375 80.386719 137.683594 81.515625 C 136.753906 82.644531 135.886719 83.820312 135.070312 85.035156 C 134.257812 86.25 133.507812 87.503906 132.816406 88.792969 C 132.128906 90.082031 131.503906 91.402344 130.941406 92.75 C 130.382812 94.101562 129.890625 95.476562 129.464844 96.875 C 129.039062 98.273438 128.683594 99.691406 128.394531 101.125 C 128.109375 102.558594 127.890625 104.003906 127.746094 105.457031 C 127.601562 106.914062 127.527344 108.371094 127.527344 109.832031 C 127.523438 114.148438 128.140625 118.371094 129.375 122.507812 C 130.609375 126.640625 132.410156 130.515625 134.773438 134.121094 C 134.421875 135.824219 134.003906 137.503906 133.773438 139.25 C 133.335938 142.457031 133.117188 145.675781 133.109375 148.910156 C 133.105469 154.507812 133.746094 160.03125 135.027344 165.476562 C 132.394531 163.722656 129.894531 161.789062 127.527344 159.6875 L 127.527344 355.472656 L 105.195312 355.472656 C 105.195312 354.375 105.167969 353.28125 105.113281 352.183594 C 105.058594 351.089844 104.976562 349.996094 104.867188 348.90625 C 104.761719 347.816406 104.625 346.726562 104.464844 345.644531 C 104.300781 344.558594 104.113281 343.480469 103.898438 342.40625 C 103.6875 341.332031 103.445312 340.261719 103.179688 339.199219 C 102.910156 338.136719 102.617188 337.078125 102.300781 336.03125 C 101.980469 334.980469 101.636719 333.941406 101.265625 332.910156 C 100.898438 331.878906 100.503906 330.855469 100.082031 329.84375 C 99.664062 328.828125 99.21875 327.828125 98.75 326.835938 C 98.28125 325.847656 97.789062 324.867188 97.269531 323.902344 C 96.753906 322.933594 96.210938 321.980469 95.648438 321.042969 C 95.085938 320.101562 94.5 319.175781 93.890625 318.265625 C 93.28125 317.351562 92.648438 316.457031 91.996094 315.578125 C 91.34375 314.695312 90.667969 313.832031 89.972656 312.984375 C 89.277344 312.136719 88.5625 311.308594 87.824219 310.496094 C 87.089844 309.683594 86.335938 308.890625 85.558594 308.117188 C 84.785156 307.339844 83.992188 306.585938 83.179688 305.847656 C 82.367188 305.113281 81.535156 304.398438 80.6875 303.703125 C 79.84375 303.007812 78.976562 302.332031 78.097656 301.679688 C 77.21875 301.027344 76.320312 300.394531 75.410156 299.785156 C 74.5 299.175781 73.574219 298.589844 72.632812 298.027344 C 71.691406 297.460938 70.738281 296.921875 69.773438 296.40625 C 68.808594 295.886719 67.828125 295.394531 66.835938 294.925781 C 65.847656 294.457031 64.84375 294.011719 63.832031 293.59375 C 62.820312 293.171875 61.796875 292.777344 60.765625 292.40625 C 59.734375 292.039062 58.695312 291.695312 57.644531 291.375 C 56.597656 291.058594 55.539062 290.765625 54.476562 290.496094 C 53.414062 290.230469 52.34375 289.988281 51.269531 289.773438 C 50.195312 289.558594 49.117188 289.371094 48.03125 289.210938 C 46.945312 289.050781 45.859375 288.914062 44.769531 288.804688 C 43.679688 288.699219 42.585938 288.617188 41.492188 288.5625 C 40.394531 288.507812 39.300781 288.480469 38.203125 288.480469 Z M 38.203125 288.480469 " fill-opacity="1" fill-rule="nonzero"/></g><g clip-path="url(#9e44ed135e)"><path fill="#ec4899" d="M 242.835938 93.214844 C 245.121094 94.738281 247.304688 96.394531 249.382812 98.183594 C 251.464844 99.972656 253.429688 101.882812 255.277344 103.914062 C 257.121094 105.949219 258.835938 108.085938 260.421875 110.328125 C 262.003906 112.570312 263.445312 114.902344 264.742188 117.320312 C 266.039062 119.742188 267.179688 122.230469 268.171875 124.792969 C 269.160156 127.351562 269.992188 129.964844 270.660156 132.625 C 271.328125 135.289062 271.832031 137.984375 272.167969 140.707031 C 272.507812 143.429688 272.675781 146.167969 272.675781 148.910156 L 272.675781 290.878906 C 274.761719 288.503906 276.96875 286.246094 279.292969 284.105469 C 281.621094 281.964844 284.050781 279.953125 286.59375 278.070312 C 289.132812 276.1875 291.765625 274.445312 294.492188 272.84375 C 297.214844 271.242188 300.019531 269.789062 302.898438 268.488281 C 305.777344 267.183594 308.71875 266.035156 311.722656 265.046875 C 314.722656 264.058594 317.769531 263.230469 320.859375 262.5625 C 323.953125 261.898438 327.066406 261.398438 330.210938 261.0625 C 333.355469 260.730469 336.507812 260.5625 339.667969 260.566406 L 339.667969 282.894531 C 338.574219 282.898438 337.476562 282.925781 336.382812 282.980469 C 335.289062 283.035156 334.195312 283.117188 333.105469 283.222656 C 332.011719 283.332031 330.925781 283.464844 329.839844 283.628906 C 328.757812 283.789062 327.679688 283.976562 326.601562 284.191406 C 325.527344 284.40625 324.460938 284.648438 323.394531 284.914062 C 322.332031 285.179688 321.277344 285.472656 320.226562 285.792969 C 319.179688 286.113281 318.140625 286.457031 317.105469 286.824219 C 316.074219 287.195312 315.054688 287.589844 314.039062 288.011719 C 313.027344 288.429688 312.027344 288.875 311.035156 289.34375 C 310.042969 289.8125 309.066406 290.304688 308.097656 290.820312 C 307.132812 291.339844 306.179688 291.878906 305.238281 292.441406 C 304.300781 293.007812 303.375 293.59375 302.460938 294.203125 C 301.550781 294.8125 300.65625 295.441406 299.773438 296.097656 C 298.894531 296.75 298.03125 297.421875 297.183594 298.117188 C 296.335938 298.8125 295.507812 299.53125 294.695312 300.265625 C 293.882812 301.003906 293.089844 301.757812 292.3125 302.53125 C 291.539062 303.308594 290.78125 304.101562 290.046875 304.914062 C 289.3125 305.726562 288.59375 306.554688 287.898438 307.402344 C 287.203125 308.25 286.53125 309.113281 285.875 309.996094 C 285.222656 310.875 284.59375 311.769531 283.984375 312.683594 C 283.375 313.59375 282.789062 314.519531 282.222656 315.460938 C 281.660156 316.398438 281.121094 317.351562 280.601562 318.320312 C 280.085938 319.285156 279.59375 320.265625 279.125 321.253906 C 278.65625 322.246094 278.210938 323.246094 277.789062 324.257812 C 277.371094 325.273438 276.976562 326.292969 276.605469 327.328125 C 276.234375 328.359375 275.890625 329.398438 275.574219 330.449219 C 275.253906 331.496094 274.960938 332.550781 274.695312 333.617188 C 274.429688 334.679688 274.1875 335.746094 273.972656 336.824219 C 273.757812 337.898438 273.570312 338.976562 273.410156 340.0625 C 273.246094 341.144531 273.113281 342.234375 273.003906 343.324219 C 272.894531 344.414062 272.816406 345.507812 272.761719 346.601562 C 272.707031 347.695312 272.675781 348.792969 272.675781 349.886719 L 250.347656 349.886719 L 250.347656 198.765625 C 249.3125 199.691406 248.253906 200.585938 247.167969 201.445312 C 246.082031 202.308594 244.96875 203.136719 243.828125 203.925781 C 242.691406 204.71875 241.527344 205.472656 240.34375 206.195312 C 239.15625 206.914062 237.949219 207.59375 236.722656 208.238281 C 235.496094 208.882812 234.246094 209.492188 232.980469 210.058594 C 231.714844 210.625 230.433594 211.152344 229.136719 211.640625 C 227.835938 212.125 226.523438 212.574219 225.199219 212.976562 C 223.871094 213.382812 222.535156 213.75 221.183594 214.070312 C 219.835938 214.394531 218.480469 214.671875 217.113281 214.910156 C 215.746094 215.148438 214.375 215.34375 212.996094 215.496094 C 211.617188 215.648438 210.234375 215.761719 208.851562 215.828125 C 207.464844 215.894531 206.078125 215.917969 204.691406 215.898438 C 203.304688 215.878906 201.921875 215.816406 200.539062 215.710938 C 199.15625 215.605469 197.777344 215.457031 196.402344 215.265625 C 195.027344 215.074219 193.664062 214.839844 192.304688 214.5625 C 190.945312 214.285156 189.59375 213.96875 188.253906 213.609375 C 186.917969 213.25 185.589844 212.847656 184.273438 212.402344 C 182.960938 211.960938 181.660156 211.476562 180.378906 210.953125 C 179.09375 210.429688 177.824219 209.867188 176.578125 209.265625 C 175.328125 208.664062 174.097656 208.023438 172.886719 207.34375 C 171.679688 206.664062 170.492188 205.949219 169.328125 205.199219 C 168.160156 204.445312 167.023438 203.65625 165.90625 202.832031 C 164.789062 202.011719 163.699219 201.152344 162.636719 200.261719 C 161.574219 199.371094 160.542969 198.445312 159.535156 197.492188 C 158.53125 196.535156 157.554688 195.550781 156.613281 194.535156 C 155.667969 193.515625 154.757812 192.472656 153.878906 191.398438 C 153 190.328125 152.15625 189.226562 151.34375 188.101562 C 150.535156 186.976562 149.757812 185.828125 149.019531 184.652344 C 148.28125 183.480469 147.578125 182.285156 146.914062 181.066406 C 146.25 179.851562 145.621094 178.613281 145.035156 177.359375 C 144.445312 176.101562 143.898438 174.828125 143.390625 173.539062 C 142.882812 172.246094 142.414062 170.941406 141.984375 169.625 C 139.765625 162.898438 138.667969 155.992188 138.691406 148.910156 C 138.699219 145.921875 138.90625 142.945312 139.304688 139.980469 C 139.558594 138.113281 139.890625 136.261719 140.296875 134.425781 C 140.707031 132.589844 141.191406 130.769531 141.753906 128.972656 C 142.316406 127.179688 142.953125 125.410156 143.664062 123.664062 C 144.375 121.921875 145.15625 120.210938 146.011719 118.535156 C 146.867188 116.859375 147.789062 115.21875 148.78125 113.621094 C 149.773438 112.019531 150.832031 110.464844 151.957031 108.957031 C 153.078125 107.445312 154.265625 105.984375 155.511719 104.574219 C 156.757812 103.164062 158.0625 101.808594 159.421875 100.507812 C 160.78125 99.207031 162.195312 97.96875 163.660156 96.785156 C 165.125 95.605469 166.636719 94.488281 168.199219 93.433594 C 169.757812 92.378906 171.359375 91.390625 173 90.472656 C 174.644531 89.550781 176.320312 88.703125 178.035156 87.925781 C 179.75 87.148438 181.492188 86.441406 183.265625 85.8125 C 185.039062 85.179688 186.835938 84.625 188.65625 84.144531 C 190.476562 83.664062 192.3125 83.261719 194.167969 82.9375 C 196.019531 82.609375 197.886719 82.363281 199.757812 82.195312 C 200.792969 83.234375 201.765625 84.328125 202.675781 85.472656 C 204.875 88.226562 206.664062 91.226562 208.046875 94.46875 C 209.425781 97.714844 210.34375 101.082031 210.800781 104.578125 C 209.101562 104.367188 207.398438 104.257812 205.683594 104.25 C 204.222656 104.253906 202.765625 104.324219 201.308594 104.472656 C 199.855469 104.617188 198.410156 104.832031 196.976562 105.117188 C 195.542969 105.40625 194.125 105.761719 192.726562 106.1875 C 191.328125 106.613281 189.953125 107.105469 188.601562 107.664062 C 187.253906 108.226562 185.933594 108.851562 184.644531 109.542969 C 183.355469 110.230469 182.101562 110.984375 180.886719 111.796875 C 179.671875 112.609375 178.496094 113.476562 177.367188 114.40625 C 176.238281 115.332031 175.15625 116.316406 174.121094 117.347656 C 173.085938 118.382812 172.105469 119.464844 171.179688 120.59375 C 170.25 121.726562 169.382812 122.898438 168.566406 124.113281 C 167.753906 125.328125 167.003906 126.582031 166.3125 127.871094 C 165.625 129.160156 165 130.480469 164.4375 131.828125 C 163.878906 133.179688 163.386719 134.554688 162.960938 135.953125 C 162.535156 137.351562 162.179688 138.769531 161.890625 140.203125 C 161.605469 141.636719 161.386719 143.082031 161.242188 144.535156 C 161.097656 145.992188 161.023438 147.449219 161.023438 148.910156 C 161.011719 150.332031 161.085938 151.746094 161.246094 153.15625 C 161.378906 154.519531 161.578125 155.878906 161.835938 157.226562 C 162.09375 158.574219 162.414062 159.90625 162.792969 161.226562 C 163.175781 162.546875 163.617188 163.84375 164.117188 165.121094 C 164.617188 166.398438 165.175781 167.652344 165.792969 168.878906 C 166.40625 170.105469 167.078125 171.300781 167.804688 172.46875 C 168.53125 173.632812 169.308594 174.761719 170.136719 175.855469 C 170.964844 176.949219 171.84375 178.003906 172.769531 179.015625 C 173.695312 180.027344 174.667969 180.996094 175.683594 181.917969 C 176.699219 182.84375 177.753906 183.71875 178.851562 184.546875 C 179.945312 185.371094 181.078125 186.144531 182.246094 186.867188 C 183.414062 187.589844 184.609375 188.257812 185.839844 188.871094 C 187.066406 189.484375 188.320312 190.039062 189.601562 190.535156 C 190.878906 191.03125 192.179688 191.46875 193.5 191.847656 C 194.820312 192.222656 196.152344 192.539062 197.503906 192.796875 C 198.851562 193.050781 200.210938 193.242188 201.574219 193.371094 C 202.941406 193.503906 204.3125 193.570312 205.683594 193.574219 C 207.148438 193.570312 208.605469 193.496094 210.058594 193.351562 C 211.515625 193.207031 212.960938 192.992188 214.394531 192.707031 C 215.828125 192.417969 217.242188 192.0625 218.640625 191.636719 C 220.042969 191.210938 221.414062 190.71875 222.765625 190.15625 C 224.117188 189.597656 225.4375 188.972656 226.726562 188.28125 C 228.015625 187.59375 229.269531 186.839844 230.484375 186.027344 C 231.699219 185.214844 232.871094 184.34375 234 183.417969 C 235.132812 182.488281 236.214844 181.507812 237.246094 180.476562 C 238.28125 179.441406 239.261719 178.359375 240.191406 177.230469 C 241.117188 176.097656 241.988281 174.925781 242.800781 173.710938 C 243.613281 172.496094 244.363281 171.242188 245.054688 169.953125 C 245.746094 168.664062 246.371094 167.34375 246.929688 165.992188 C 247.492188 164.644531 247.984375 163.269531 248.410156 161.871094 C 248.835938 160.472656 249.191406 159.054688 249.476562 157.621094 C 249.765625 156.1875 249.980469 154.742188 250.125 153.289062 C 250.269531 151.832031 250.34375 150.375 250.347656 148.910156 C 250.347656 144.59375 249.730469 140.371094 248.496094 136.234375 C 247.261719 132.097656 245.460938 128.226562 243.09375 124.617188 C 243.449219 122.914062 243.871094 121.234375 244.101562 119.492188 C 244.535156 116.289062 244.757812 113.066406 244.761719 109.832031 C 244.769531 104.21875 244.125 98.679688 242.835938 93.214844 Z M 242.835938 93.214844 " fill-opacity="1" fill-rule="nonzero"/></g><g clip-path="url(#274fbe7e3e)"><g clip-path="url(#f67d9a0801)"><path fill="#818cf8" d="M 56.628906 30.105469 L 91.015625 30.105469 L 91.015625 64.492188 L 56.628906 64.492188 Z M 56.628906 30.105469 " fill-opacity="1" fill-rule="nonzero"/></g></g><g clip-path="url(#28c00ead0e)"><g clip-path="url(#31591feb6d)"><path fill="#818cf8" d="M 25.023438 90.964844 L 68.332031 90.964844 L 68.332031 134.273438 L 25.023438 134.273438 Z M 25.023438 90.964844 " fill-opacity="1" fill-rule="nonzero"/></g></g><g clip-path="url(#70d46c0ccc)"><g clip-path="url(#e23003d215)"><path fill="#818cf8" d="M 0.75 52.355469 L 25.023438 52.355469 L 25.023438 76.628906 L 0.75 76.628906 Z M 0.75 52.355469 " fill-opacity="1" fill-rule="nonzero"/></g></g></svg>